<svg xmlns="http://www.w3.org/2000/svg" width="256" height="256">
    <path d="M0 0h256v256H0z" style="fill:#1e1e1e;fill-opacity:1;stroke-width:1.19559"/>
    <path d="M30.383 121.18q5.695 0 8.79-2.813 3.163-2.812 3.163-7.945V81.664q0-12.797 7.102-19.828 7.172-7.031 20.18-7.031v13.64q-6.188 0-9.563 3.024t-3.375 8.578v30.445q0 11.602-6.89 18-6.891 6.328-19.407 6.328zm39.234 80.015q-13.007 0-20.18-7.03-7.1-6.962-7.1-19.759v-28.828q0-5.133-3.165-7.945-3.094-2.813-8.789-2.813v-13.64q12.586 0 19.406 6.61 6.89 6.538 6.89 18.562v29.53q0 5.556 3.376 8.579 3.375 3.094 9.562 3.094z" aria-label="{" style="font-size:144px;font-family:Bahnschrift;-inkscape-font-specification:Bahnschrift;fill:gold"/>
    <path d="M225.617 134.82q-12.515 0-19.406-6.328-6.89-6.398-6.89-18V80.047q0-5.555-3.376-8.578-3.375-3.024-9.562-3.024v-13.64q13.008 0 20.11 7.03 7.171 7.032 7.171 19.83v28.757q0 5.133 3.094 7.945 3.164 2.813 8.86 2.813zm-39.234 52.735q6.188 0 9.563-3.094 3.375-3.024 3.375-8.578v-29.531q0-12.024 6.82-18.563 6.89-6.61 19.476-6.61v13.641q-5.695 0-8.859 2.813-3.094 2.812-3.094 7.945v28.828q0 12.797-7.172 19.758-7.101 7.031-20.109 7.031z" aria-label="}" style="font-size:144px;font-family:Bahnschrift;-inkscape-font-specification:Bahnschrift;fill:gold"/>
    <path d="M128.176 180.172q-10.617 0-18.703-4.711-8.016-4.711-12.446-13.36t-4.43-20.038v-28.055q0-11.39 4.43-20.04 4.43-8.648 12.446-13.359 8.086-4.78 18.703-4.78 8.789 0 16.172 3.796 7.382 3.727 12.304 10.617 4.993 6.89 6.75 15.961h-14.695q-1.336-4.781-4.5-8.508-3.094-3.797-7.312-5.836-4.22-2.039-8.72-2.039-6.257 0-10.968 3.024-4.71 3.023-7.312 8.508-2.602 5.414-2.602 12.656v28.055q0 7.171 2.602 12.656 2.601 5.484 7.312 8.508 4.711 2.953 10.969 2.953 4.57 0 8.719-1.899 4.218-1.898 7.312-5.625 3.164-3.726 4.5-8.86h14.695q-1.757 9.071-6.75 15.962-4.992 6.89-12.375 10.687-7.382 3.727-16.101 3.727" aria-label="C" style="font-size:144px;font-family:Bahnschrift;-inkscape-font-specification:Bahnschrift;fill:#e8e8e8"/>
</svg>
